<svg aria-roledescription="er" viewBox="0 0 166.2992706298828 535" style="max-width: 100%;" xmlns="http://www.w3.org/2000/svg" width="100%" id="graph-div" height="100%" xmlns:xlink="http://www.w3.org/1999/xlink"><style>@import url("https://cdnjs.cloudflare.com/ajax/libs/font-awesome/6.2.1/css/all.min.css");'</style><style>#graph-div{font-family:Lexend,Noto Sans,Helvetica,Arial;font-size:16px;fill:#000000;}#graph-div .error-icon{fill:#552222;}#graph-div .error-text{fill:#552222;stroke:#552222;}#graph-div .edge-thickness-normal{stroke-width:2px;}#graph-div .edge-thickness-thick{stroke-width:3.5px;}#graph-div .edge-pattern-solid{stroke-dasharray:0;}#graph-div .edge-pattern-dashed{stroke-dasharray:3;}#graph-div .edge-pattern-dotted{stroke-dasharray:2;}#graph-div .marker{fill:#666;stroke:#666;}#graph-div .marker.cross{stroke:#666;}#graph-div svg{font-family:Lexend,Noto Sans,Helvetica,Arial;font-size:16px;}#graph-div .entityBox{fill:#eee;stroke:#999;}#graph-div .attributeBoxOdd{fill:#ffffff;stroke:#999;}#graph-div .attributeBoxEven{fill:#f2f2f2;stroke:#999;}#graph-div .relationshipLabelBox{fill:hsl(-160, 0%, 93.3333333333%);opacity:0.7;background-color:hsl(-160, 0%, 93.3333333333%);}#graph-div .relationshipLabelBox rect{opacity:0.5;}#graph-div .relationshipLine{stroke:#666;}#graph-div .entityTitleText{text-anchor:middle;font-size:18px;fill:#000000;}#graph-div :root{--mermaid-font-family:"trebuchet ms",verdana,arial,sans-serif;}</style><g></g><defs><marker orient="auto" markerHeight="18" markerWidth="18" refY="9" refX="0" id="ONLY_ONE_START"><path d="M9,0 L9,18 M15,0 L15,18" fill="none" stroke="gray"></path></marker></defs><defs><marker orient="auto" markerHeight="18" markerWidth="18" refY="9" refX="18" id="ONLY_ONE_END"><path d="M3,0 L3,18 M9,0 L9,18" fill="none" stroke="gray"></path></marker></defs><defs><marker orient="auto" markerHeight="18" markerWidth="30" refY="9" refX="0" id="ZERO_OR_ONE_START"><circle r="6" cy="9" cx="21" fill="white" stroke="gray"></circle><path d="M9,0 L9,18" fill="none" stroke="gray"></path></marker></defs><defs><marker orient="auto" markerHeight="18" markerWidth="30" refY="9" refX="30" id="ZERO_OR_ONE_END"><circle r="6" cy="9" cx="9" fill="white" stroke="gray"></circle><path d="M21,0 L21,18" fill="none" stroke="gray"></path></marker></defs><defs><marker orient="auto" markerHeight="36" markerWidth="45" refY="18" refX="18" id="ONE_OR_MORE_START"><path d="M0,18 Q 18,0 36,18 Q 18,36 0,18 M42,9 L42,27" fill="none" stroke="gray"></path></marker></defs><defs><marker orient="auto" markerHeight="36" markerWidth="45" refY="18" refX="27" id="ONE_OR_MORE_END"><path d="M3,9 L3,27 M9,18 Q27,0 45,18 Q27,36 9,18" fill="none" stroke="gray"></path></marker></defs><defs><marker orient="auto" markerHeight="36" markerWidth="57" refY="18" refX="18" id="ZERO_OR_MORE_START"><circle r="6" cy="18" cx="48" fill="white" stroke="gray"></circle><path d="M0,18 Q18,0 36,18 Q18,36 0,18" fill="none" stroke="gray"></path></marker></defs><defs><marker orient="auto" markerHeight="36" markerWidth="57" refY="18" refX="39" id="ZERO_OR_MORE_END"><circle r="6" cy="18" cx="9" fill="white" stroke="gray"></circle><path d="M21,18 Q39,0 57,18 Q39,36 21,18" fill="none" stroke="gray"></path></marker></defs><path style="stroke: gray; fill: none;" marker-start="url(#ONLY_ONE_START)" marker-end="url(#ZERO_OR_MORE_END)" d="M83.1496353149414,229L83.1496353149414,237.33333333333334C83.1496353149414,245.66666666666666,83.1496353149414,262.3333333333333,83.1496353149414,279C83.1496353149414,295.6666666666667,83.1496353149414,312.3333333333333,83.1496353149414,320.6666666666667L83.1496353149414,329" class="er relationshipLine"></path><g transform="translate(23.631210327148438,20 )" id="entity-USER-f776156b-7471-4534-9631-6f741287fc8f"><rect height="209" width="119.03684997558594" y="0" x="0" class="er entityBox"></rect><text transform="translate(59.51842498779297,12.5)" style="dominant-baseline: middle; text-anchor: middle; font-size: 12px;" y="0" x="0" id="text-entity-USER-f776156b-7471-4534-9631-6f741287fc8f" class="er entityLabel">USER</text><rect height="23" width="38.8177490234375" y="25" x="0" class="er attributeBoxOdd"></rect><text transform="translate(5,36.5)" style="dominant-baseline: middle; font-size: 10.2px;" y="0" x="0" id="text-entity-USER-f776156b-7471-4534-9631-6f741287fc8f-attr-1-type" class="er entityLabel">string</text><rect height="23" width="80.21910095214844" y="25" x="38.8177490234375" class="er attributeBoxOdd"></rect><text transform="translate(43.8177490234375,36.5)" style="dominant-baseline: middle; font-size: 10.2px;" y="0" x="0" id="text-entity-USER-f776156b-7471-4534-9631-6f741287fc8f-attr-1-name" class="er entityLabel">user_id</text><rect height="23" width="38.8177490234375" y="48" x="0" class="er attributeBoxEven"></rect><text transform="translate(5,59.5)" style="dominant-baseline: middle; font-size: 10.2px;" y="0" x="0" id="text-entity-USER-f776156b-7471-4534-9631-6f741287fc8f-attr-2-type" class="er entityLabel">string</text><rect height="23" width="80.21910095214844" y="48" x="38.8177490234375" class="er attributeBoxEven"></rect><text transform="translate(43.8177490234375,59.5)" style="dominant-baseline: middle; font-size: 10.2px;" y="0" x="0" id="text-entity-USER-f776156b-7471-4534-9631-6f741287fc8f-attr-2-name" class="er entityLabel">name</text><rect height="23" width="38.8177490234375" y="71" x="0" class="er attributeBoxOdd"></rect><text transform="translate(5,82.5)" style="dominant-baseline: middle; font-size: 10.2px;" y="0" x="0" id="text-entity-USER-f776156b-7471-4534-9631-6f741287fc8f-attr-3-type" class="er entityLabel">string</text><rect height="23" width="80.21910095214844" y="71" x="38.8177490234375" class="er attributeBoxOdd"></rect><text transform="translate(43.8177490234375,82.5)" style="dominant-baseline: middle; font-size: 10.2px;" y="0" x="0" id="text-entity-USER-f776156b-7471-4534-9631-6f741287fc8f-attr-3-name" class="er entityLabel">email</text><rect height="23" width="38.8177490234375" y="94" x="0" class="er attributeBoxEven"></rect><text transform="translate(5,105.5)" style="dominant-baseline: middle; font-size: 10.2px;" y="0" x="0" id="text-entity-USER-f776156b-7471-4534-9631-6f741287fc8f-attr-4-type" class="er entityLabel">string</text><rect height="23" width="80.21910095214844" y="94" x="38.8177490234375" class="er attributeBoxEven"></rect><text transform="translate(43.8177490234375,105.5)" style="dominant-baseline: middle; font-size: 10.2px;" y="0" x="0" id="text-entity-USER-f776156b-7471-4534-9631-6f741287fc8f-attr-4-name" class="er entityLabel">password</text><rect height="23" width="38.8177490234375" y="117" x="0" class="er attributeBoxOdd"></rect><text transform="translate(5,128.5)" style="dominant-baseline: middle; font-size: 10.2px;" y="0" x="0" id="text-entity-USER-f776156b-7471-4534-9631-6f741287fc8f-attr-5-type" class="er entityLabel">string</text><rect height="23" width="80.21910095214844" y="117" x="38.8177490234375" class="er attributeBoxOdd"></rect><text transform="translate(43.8177490234375,128.5)" style="dominant-baseline: middle; font-size: 10.2px;" y="0" x="0" id="text-entity-USER-f776156b-7471-4534-9631-6f741287fc8f-attr-5-name" class="er entityLabel">bio</text><rect height="23" width="38.8177490234375" y="140" x="0" class="er attributeBoxEven"></rect><text transform="translate(5,151.5)" style="dominant-baseline: middle; font-size: 10.2px;" y="0" x="0" id="text-entity-USER-f776156b-7471-4534-9631-6f741287fc8f-attr-6-type" class="er entityLabel">string</text><rect height="23" width="80.21910095214844" y="140" x="38.8177490234375" class="er attributeBoxEven"></rect><text transform="translate(43.8177490234375,151.5)" style="dominant-baseline: middle; font-size: 10.2px;" y="0" x="0" id="text-entity-USER-f776156b-7471-4534-9631-6f741287fc8f-attr-6-name" class="er entityLabel">url</text><rect height="23" width="38.8177490234375" y="163" x="0" class="er attributeBoxOdd"></rect><text transform="translate(5,174.5)" style="dominant-baseline: middle; font-size: 10.2px;" y="0" x="0" id="text-entity-USER-f776156b-7471-4534-9631-6f741287fc8f-attr-7-type" class="er entityLabel">bool</text><rect height="23" width="80.21910095214844" y="163" x="38.8177490234375" class="er attributeBoxOdd"></rect><text transform="translate(43.8177490234375,174.5)" style="dominant-baseline: middle; font-size: 10.2px;" y="0" x="0" id="text-entity-USER-f776156b-7471-4534-9631-6f741287fc8f-attr-7-name" class="er entityLabel">archived</text><rect height="23" width="38.8177490234375" y="186" x="0" class="er attributeBoxEven"></rect><text transform="translate(5,197.5)" style="dominant-baseline: middle; font-size: 10.2px;" y="0" x="0" id="text-entity-USER-f776156b-7471-4534-9631-6f741287fc8f-attr-8-type" class="er entityLabel">int</text><rect height="23" width="80.21910095214844" y="186" x="38.8177490234375" class="er attributeBoxEven"></rect><text transform="translate(43.8177490234375,197.5)" style="dominant-baseline: middle; font-size: 10.2px;" y="0" x="0" id="text-entity-USER-f776156b-7471-4534-9631-6f741287fc8f-attr-8-name" class="er entityLabel">tabpreference</text></g><g transform="translate(20,329 )" id="entity-SITE-e32b5a08-7792-45bf-8b6b-c06fa02d3ef2"><rect height="186" width="126.29927062988281" y="0" x="0" class="er entityBox"></rect><text transform="translate(63.149635314941406,12.5)" style="dominant-baseline: middle; text-anchor: middle; font-size: 12px;" y="0" x="0" id="text-entity-SITE-e32b5a08-7792-45bf-8b6b-c06fa02d3ef2" class="er entityLabel">SITE</text><rect height="23" width="54.91294860839844" y="25" x="0" class="er attributeBoxOdd"></rect><text transform="translate(5,36.5)" style="dominant-baseline: middle; font-size: 10.2px;" y="0" x="0" id="text-entity-SITE-e32b5a08-7792-45bf-8b6b-c06fa02d3ef2-attr-1-type" class="er entityLabel">int</text><rect height="23" width="71.38632202148438" y="25" x="54.91294860839844" class="er attributeBoxOdd"></rect><text transform="translate(59.91294860839844,36.5)" style="dominant-baseline: middle; font-size: 10.2px;" y="0" x="0" id="text-entity-SITE-e32b5a08-7792-45bf-8b6b-c06fa02d3ef2-attr-1-name" class="er entityLabel">site_id</text><rect height="23" width="54.91294860839844" y="48" x="0" class="er attributeBoxEven"></rect><text transform="translate(5,59.5)" style="dominant-baseline: middle; font-size: 10.2px;" y="0" x="0" id="text-entity-SITE-e32b5a08-7792-45bf-8b6b-c06fa02d3ef2-attr-2-type" class="er entityLabel">string</text><rect height="23" width="71.38632202148438" y="48" x="54.91294860839844" class="er attributeBoxEven"></rect><text transform="translate(59.91294860839844,59.5)" style="dominant-baseline: middle; font-size: 10.2px;" y="0" x="0" id="text-entity-SITE-e32b5a08-7792-45bf-8b6b-c06fa02d3ef2-attr-2-name" class="er entityLabel">user_id</text><rect height="23" width="54.91294860839844" y="71" x="0" class="er attributeBoxOdd"></rect><text transform="translate(5,82.5)" style="dominant-baseline: middle; font-size: 10.2px;" y="0" x="0" id="text-entity-SITE-e32b5a08-7792-45bf-8b6b-c06fa02d3ef2-attr-3-type" class="er entityLabel">string</text><rect height="23" width="71.38632202148438" y="71" x="54.91294860839844" class="er attributeBoxOdd"></rect><text transform="translate(59.91294860839844,82.5)" style="dominant-baseline: middle; font-size: 10.2px;" y="0" x="0" id="text-entity-SITE-e32b5a08-7792-45bf-8b6b-c06fa02d3ef2-attr-3-name" class="er entityLabel">name</text><rect height="23" width="54.91294860839844" y="94" x="0" class="er attributeBoxEven"></rect><text transform="translate(5,105.5)" style="dominant-baseline: middle; font-size: 10.2px;" y="0" x="0" id="text-entity-SITE-e32b5a08-7792-45bf-8b6b-c06fa02d3ef2-attr-4-type" class="er entityLabel">datetime</text><rect height="23" width="71.38632202148438" y="94" x="54.91294860839844" class="er attributeBoxEven"></rect><text transform="translate(59.91294860839844,105.5)" style="dominant-baseline: middle; font-size: 10.2px;" y="0" x="0" id="text-entity-SITE-e32b5a08-7792-45bf-8b6b-c06fa02d3ef2-attr-4-name" class="er entityLabel">datecreated</text><rect height="23" width="54.91294860839844" y="117" x="0" class="er attributeBoxOdd"></rect><text transform="translate(5,128.5)" style="dominant-baseline: middle; font-size: 10.2px;" y="0" x="0" id="text-entity-SITE-e32b5a08-7792-45bf-8b6b-c06fa02d3ef2-attr-5-type" class="er entityLabel">bool</text><rect height="23" width="71.38632202148438" y="117" x="54.91294860839844" class="er attributeBoxOdd"></rect><text transform="translate(59.91294860839844,128.5)" style="dominant-baseline: middle; font-size: 10.2px;" y="0" x="0" id="text-entity-SITE-e32b5a08-7792-45bf-8b6b-c06fa02d3ef2-attr-5-name" class="er entityLabel">private</text><rect height="23" width="54.91294860839844" y="140" x="0" class="er attributeBoxEven"></rect><text transform="translate(5,151.5)" style="dominant-baseline: middle; font-size: 10.2px;" y="0" x="0" id="text-entity-SITE-e32b5a08-7792-45bf-8b6b-c06fa02d3ef2-attr-6-type" class="er entityLabel">bool</text><rect height="23" width="71.38632202148438" y="140" x="54.91294860839844" class="er attributeBoxEven"></rect><text transform="translate(59.91294860839844,151.5)" style="dominant-baseline: middle; font-size: 10.2px;" y="0" x="0" id="text-entity-SITE-e32b5a08-7792-45bf-8b6b-c06fa02d3ef2-attr-6-name" class="er entityLabel">deleted</text><rect height="23" width="54.91294860839844" y="163" x="0" class="er attributeBoxOdd"></rect><text transform="translate(5,174.5)" style="dominant-baseline: middle; font-size: 10.2px;" y="0" x="0" id="text-entity-SITE-e32b5a08-7792-45bf-8b6b-c06fa02d3ef2-attr-7-type" class="er entityLabel">text</text><rect height="23" width="71.38632202148438" y="163" x="54.91294860839844" class="er attributeBoxOdd"></rect><text transform="translate(59.91294860839844,174.5)" style="dominant-baseline: middle; font-size: 10.2px;" y="0" x="0" id="text-entity-SITE-e32b5a08-7792-45bf-8b6b-c06fa02d3ef2-attr-7-name" class="er entityLabel">sitepath</text></g><rect height="15" width="20.735992431640625" y="271.5" x="72.7816390991211" class="er relationshipLabelBox"></rect><text style="text-anchor: middle; dominant-baseline: middle; font-size: 12px;" y="279" x="83.1496353149414" id="rel1" class="er relationshipLabel">has</text></svg>