<svg aria-roledescription="mindmap" viewBox="5 5 1914.0859375 870.6515502929688" style="max-width: 100%;" xmlns="http://www.w3.org/2000/svg" width="100%" id="graph-div" height="100%" xmlns:xlink="http://www.w3.org/1999/xlink"><style>@import url("https://cdnjs.cloudflare.com/ajax/libs/font-awesome/6.2.1/css/all.min.css");'</style><style>#graph-div{font-family:"trebuchet ms",verdana,arial,sans-serif;font-size:16px;fill:#000000;}#graph-div .error-icon{fill:#552222;}#graph-div .error-text{fill:#552222;stroke:#552222;}#graph-div .edge-thickness-normal{stroke-width:2px;}#graph-div .edge-thickness-thick{stroke-width:3.5px;}#graph-div .edge-pattern-solid{stroke-dasharray:0;}#graph-div .edge-pattern-dashed{stroke-dasharray:3;}#graph-div .edge-pattern-dotted{stroke-dasharray:2;}#graph-div .marker{fill:#666;stroke:#666;}#graph-div .marker.cross{stroke:#666;}#graph-div svg{font-family:"trebuchet ms",verdana,arial,sans-serif;font-size:16px;}#graph-div .edge{stroke-width:3;}#graph-div .section--1 rect,#graph-div .section--1 path,#graph-div .section--1 circle,#graph-div .section--1 polygon,#graph-div .section--1 path{fill:#555;}#graph-div .section--1 text{fill:#F4F4F4;}#graph-div .node-icon--1{font-size:40px;color:#F4F4F4;}#graph-div .section-edge--1{stroke:#555;}#graph-div .edge-depth--1{stroke-width:17;}#graph-div .section--1 line{stroke:#aaaaaa;stroke-width:3;}#graph-div .disabled,#graph-div .disabled circle,#graph-div .disabled text{fill:lightgray;}#graph-div .disabled text{fill:#efefef;}#graph-div .section-0 rect,#graph-div .section-0 path,#graph-div .section-0 circle,#graph-div .section-0 polygon,#graph-div .section-0 path{fill:#F4F4F4;}#graph-div .section-0 text{fill:calculated;}#graph-div .node-icon-0{font-size:40px;color:calculated;}#graph-div .section-edge-0{stroke:#F4F4F4;}#graph-div .edge-depth-0{stroke-width:14;}#graph-div .section-0 line{stroke:#0b0b0b;stroke-width:3;}#graph-div .disabled,#graph-div .disabled circle,#graph-div .disabled text{fill:lightgray;}#graph-div .disabled text{fill:#efefef;}#graph-div .section-1 rect,#graph-div .section-1 path,#graph-div .section-1 circle,#graph-div .section-1 polygon,#graph-div .section-1 path{fill:#555;}#graph-div .section-1 text{fill:#F4F4F4;}#graph-div .node-icon-1{font-size:40px;color:#F4F4F4;}#graph-div .section-edge-1{stroke:#555;}#graph-div .edge-depth-1{stroke-width:11;}#graph-div .section-1 line{stroke:#aaaaaa;stroke-width:3;}#graph-div .disabled,#graph-div .disabled circle,#graph-div .disabled text{fill:lightgray;}#graph-div .disabled text{fill:#efefef;}#graph-div .section-2 rect,#graph-div .section-2 path,#graph-div .section-2 circle,#graph-div .section-2 polygon,#graph-div .section-2 path{fill:#BBB;}#graph-div .section-2 text{fill:calculated;}#graph-div .node-icon-2{font-size:40px;color:calculated;}#graph-div .section-edge-2{stroke:#BBB;}#graph-div .edge-depth-2{stroke-width:8;}#graph-div .section-2 line{stroke:#444444;stroke-width:3;}#graph-div .disabled,#graph-div .disabled circle,#graph-div .disabled text{fill:lightgray;}#graph-div .disabled text{fill:#efefef;}#graph-div .section-3 rect,#graph-div .section-3 path,#graph-div .section-3 circle,#graph-div .section-3 polygon,#graph-div .section-3 path{fill:#777;}#graph-div .section-3 text{fill:calculated;}#graph-div .node-icon-3{font-size:40px;color:calculated;}#graph-div .section-edge-3{stroke:#777;}#graph-div .edge-depth-3{stroke-width:5;}#graph-div .section-3 line{stroke:#888888;stroke-width:3;}#graph-div .disabled,#graph-div .disabled circle,#graph-div .disabled text{fill:lightgray;}#graph-div .disabled text{fill:#efefef;}#graph-div .section-4 rect,#graph-div .section-4 path,#graph-div .section-4 circle,#graph-div .section-4 polygon,#graph-div .section-4 path{fill:#999;}#graph-div .section-4 text{fill:calculated;}#graph-div .node-icon-4{font-size:40px;color:calculated;}#graph-div .section-edge-4{stroke:#999;}#graph-div .edge-depth-4{stroke-width:2;}#graph-div .section-4 line{stroke:#666666;stroke-width:3;}#graph-div .disabled,#graph-div .disabled circle,#graph-div .disabled text{fill:lightgray;}#graph-div .disabled text{fill:#efefef;}#graph-div .section-5 rect,#graph-div .section-5 path,#graph-div .section-5 circle,#graph-div .section-5 polygon,#graph-div .section-5 path{fill:#DDD;}#graph-div .section-5 text{fill:calculated;}#graph-div .node-icon-5{font-size:40px;color:calculated;}#graph-div .section-edge-5{stroke:#DDD;}#graph-div .edge-depth-5{stroke-width:-1;}#graph-div .section-5 line{stroke:#222222;stroke-width:3;}#graph-div .disabled,#graph-div .disabled circle,#graph-div .disabled text{fill:lightgray;}#graph-div .disabled text{fill:#efefef;}#graph-div .section-6 rect,#graph-div .section-6 path,#graph-div .section-6 circle,#graph-div .section-6 polygon,#graph-div .section-6 path{fill:#FFF;}#graph-div .section-6 text{fill:calculated;}#graph-div .node-icon-6{font-size:40px;color:calculated;}#graph-div .section-edge-6{stroke:#FFF;}#graph-div .edge-depth-6{stroke-width:-4;}#graph-div .section-6 line{stroke:#000000;stroke-width:3;}#graph-div .disabled,#graph-div .disabled circle,#graph-div .disabled text{fill:lightgray;}#graph-div .disabled text{fill:#efefef;}#graph-div .section-7 rect,#graph-div .section-7 path,#graph-div .section-7 circle,#graph-div .section-7 polygon,#graph-div .section-7 path{fill:#DDD;}#graph-div .section-7 text{fill:calculated;}#graph-div .node-icon-7{font-size:40px;color:calculated;}#graph-div .section-edge-7{stroke:#DDD;}#graph-div .edge-depth-7{stroke-width:-7;}#graph-div .section-7 line{stroke:#222222;stroke-width:3;}#graph-div .disabled,#graph-div .disabled circle,#graph-div .disabled text{fill:lightgray;}#graph-div .disabled text{fill:#efefef;}#graph-div .section-8 rect,#graph-div .section-8 path,#graph-div .section-8 circle,#graph-div .section-8 polygon,#graph-div .section-8 path{fill:#BBB;}#graph-div .section-8 text{fill:calculated;}#graph-div .node-icon-8{font-size:40px;color:calculated;}#graph-div .section-edge-8{stroke:#BBB;}#graph-div .edge-depth-8{stroke-width:-10;}#graph-div .section-8 line{stroke:#444444;stroke-width:3;}#graph-div .disabled,#graph-div .disabled circle,#graph-div .disabled text{fill:lightgray;}#graph-div .disabled text{fill:#efefef;}#graph-div .section-9 rect,#graph-div .section-9 path,#graph-div .section-9 circle,#graph-div .section-9 polygon,#graph-div .section-9 path{fill:#999;}#graph-div .section-9 text{fill:calculated;}#graph-div .node-icon-9{font-size:40px;color:calculated;}#graph-div .section-edge-9{stroke:#999;}#graph-div .edge-depth-9{stroke-width:-13;}#graph-div .section-9 line{stroke:#666666;stroke-width:3;}#graph-div .disabled,#graph-div .disabled circle,#graph-div .disabled text{fill:lightgray;}#graph-div .disabled text{fill:#efefef;}#graph-div .section-10 rect,#graph-div .section-10 path,#graph-div .section-10 circle,#graph-div .section-10 polygon,#graph-div .section-10 path{fill:#777;}#graph-div .section-10 text{fill:calculated;}#graph-div .node-icon-10{font-size:40px;color:calculated;}#graph-div .section-edge-10{stroke:#777;}#graph-div .edge-depth-10{stroke-width:-16;}#graph-div .section-10 line{stroke:#888888;stroke-width:3;}#graph-div .disabled,#graph-div .disabled circle,#graph-div .disabled text{fill:lightgray;}#graph-div .disabled text{fill:#efefef;}#graph-div .section-root rect,#graph-div .section-root path,#graph-div .section-root circle,#graph-div .section-root polygon{fill:hsl(0, 0%, 70.6862745098%);}#graph-div .section-root text{fill:#333;}#graph-div .icon-container{height:100%;display:flex;justify-content:center;align-items:center;}#graph-div .edge{fill:none;}#graph-div :root{--mermaid-font-family:"trebuchet ms",verdana,arial,sans-serif;}</style><g></g><g></g><g class="mindmap-edges"><path class="edge section-edge--1 edge-depth-2" d="M 502.64772060295826,344.217005787766 L 454.6210936378641,367.83115064979086 L406.59446667276995,391.4452955118157"></path><path class="edge section-edge--1 edge-depth-2" d="M 527.5763093286017,347.26753959098903 L 562.627608225119,376.82125845015287 L597.6789071216364,406.3749773093167"></path><path class="edge section-edge--1 edge-depth-2" d="M 501.10989915438165,337.7972798603522 L 376.85667755500054,339.4444078718278 L252.6034559556195,341.09153588330344"></path><path class="edge section-edge--1 edge-depth-1" d="M 739.9863870284485,335.05005570154304 L 635.5469983513153,336.23888798903687 L531.1076096741823,337.4277202765307"></path><path class="edge section-edge--1 edge-depth-2" d="M 576.119179719373,268.1663849777889 L 457.2870384480117,257.6609194283105 L338.45489717665043,247.15545387883208"></path><path class="edge section-edge--1 edge-depth-2" d="M 605.3103951212997,264.80202541096185 L 683.2045119466394,239.19009060690405 L761.0986287719791,213.57815580284628"></path><path class="edge section-edge--1 edge-depth-3" d="M 518.515308022515,163.35049470302047 L 463.67526320234174,123.95241959327817 L408.83521838216836,84.55434448353586"></path><path class="edge section-edge--1 edge-depth-2" d="M 583.1582485682159,256.7378891647322 L 560.8791795595271,220.7948451722488 L538.6001105508384,184.85180117976543"></path><path class="edge section-edge--1 edge-depth-1" d="M 741.0530600068096,329.3214918692841 L 673.0231596818239,302.1833219524743 L604.9932593568385,275.04515203566444"></path><path class="edge section-edge--1 edge-depth-0" d="M 933.7327933663714,369.4619774937873 L 851.7225578133032,353.59527355254465 L769.7123222602349,337.728569611302"></path><path class="edge section-edge-0 edge-depth-2" d="M 1026.583258464733,202.6062580766533 L 1135.6254706473906,179.03071032605348 L1244.6676828300483,155.45516257545367"></path><path class="edge section-edge-0 edge-depth-1" d="M 920.4808135979895,270.32366376654045 L 960.0741811359122,242.37504437486183 L999.667548673835,214.42642498318324"></path><path class="edge section-edge-0 edge-depth-0" d="M 942.5220381022466,358.53645954784656 L 928.3430242170383,325.64260562407406 L914.1640103318299,292.74875170030157"></path><path class="edge section-edge-1 edge-depth-1" d="M 1058.344059685805,270.98989535576993 L 1112.2469694108363,297.2962276955828 L1166.1498791358674,323.60256003539564"></path><path class="edge section-edge-1 edge-depth-2" d="M 1034.8880092445668,137.77483620961942 L 1105.7125687151884,107.73668717950162 L1176.53712818581,77.69853814938382"></path><path class="edge section-edge-1 edge-depth-2" d="M 1014.6899944207224,130.06018972909544 L 997.3222059198877,93.16582823929619 L979.9544174190529,56.27146674949694"></path><path class="edge section-edge-1 edge-depth-2" d="M 1006.351048687379,140.7861425247341 L 889.1905029883944,118.14963635848133 L772.0299572894098,95.51313019222857"></path><path class="edge section-edge-1 edge-depth-1" d="M 1041.9654570404698,249.69373480765495 L 1032.9712078860505,204.02136378831707 L1023.9769587316313,158.3489927689792"></path><path class="edge section-edge-1 edge-depth-2" d="M 1285.4109644169337,242.83390705172678 L 1388.6760703004197,206.36675760324465 L1491.9411761839056,169.89960815476246"></path><path class="edge section-edge-1 edge-depth-1" d="M 1059.8236660643563,263.3153673796948 L 1158.0653676849493,256.11989655986054 L1256.3070693055422,248.9244257400262"></path><path class="edge section-edge-1 edge-depth-0" d="M 958.453663419516,361.12548865731844 L 996.6617193599259,318.3611477474319 L1034.8697753003357,275.5968068375454"></path><path class="edge section-edge-2 edge-depth-2" d="M 1454.3590826201205,388.8281126762256 L 1554.0747557816119,425.4803505576464 L1653.7904289431033,462.13258843906726"></path><path class="edge section-edge-2 edge-depth-2" d="M 1455.220671444366,382.3198576456026 L 1564.4305305162145,372.5742940514496 L1673.640389588063,362.8287304572966"></path><path class="edge section-edge-2 edge-depth-3" d="M 1558.800694243533,286.62179545522037 L 1675.2681428253654,257.9519481597537 L1791.7355914071977,229.28210086428712"></path><path class="edge section-edge-2 edge-depth-2" d="M 1451.4355338331611,373.62540401659396 L 1492.2577698528607,336.9301533707502 L1533.0800058725602,300.2349027249064"></path><path class="edge section-edge-2 edge-depth-1" d="M 1169.6796281900681,402.61569723658994 L 1297.4981821737665,393.6586901201532 L1425.316736157465,384.7016830037165"></path><path class="edge section-edge-2 edge-depth-0" d="M 963.2893445070745,374.5654772745689 L 1051.588011595617,387.98774514538593 L1139.8866786841597,401.410013016203"></path><path class="edge section-edge-3 edge-depth-2" d="M 1266.1962914899873,460.8421991234211 L 1354.5251482251845,475.4692449348911 L1442.8540049603816,490.0962907463611"></path><path class="edge section-edge-3 edge-depth-1" d="M 1067.1802368947674,474.53135390659304 L 1151.8176510967005,467.11606686154914 L1236.4550652986334,459.70077981650525"></path><path class="edge section-edge-3 edge-depth-3" d="M 1143.7656555346596,733.6819969190193 L 1144.339184706915,778.3173902249194 L1144.9127138791703,822.9527835308196"></path><path class="edge section-edge-3 edge-depth-3" d="M 1157.9064937979158,723.1046654355389 L 1269.6462744803503,757.5727006371588 L1381.386055162785,792.0407358387788"></path><path class="edge section-edge-3 edge-depth-2" d="M 1073.5778280388747,616.3135486918698 L 1104.3422005089806,661.3072542249813 L1135.1065729790864,706.3009597580929"></path><path class="edge section-edge-3 edge-depth-3" d="M 1319.98605795196,638.8378761403807 L 1421.9259315863178,654.359383595522 L1523.8658052206758,669.8808910506633"></path><path class="edge section-edge-3 edge-depth-2" d="M 1079.974621927048,605.9528182393266 L 1185.1342179960766,620.2556258418671 L1290.2938140651054,634.5584334444076"></path><path class="edge section-edge-3 edge-depth-3" d="M 905.1386242886233,713.6251157979343 L 894.5367289077326,753.074645796435 L883.9348335268419,792.5241757949357"></path><path class="edge section-edge-3 edge-depth-2" d="M 1052.3058832036857,611.7426118617418 L 987.0715715493752,651.5351953632132 L921.8372598950648,691.3277788646847"></path><path class="edge section-edge-3 edge-depth-1" d="M 1053.737521589566,490.76533204969894 L 1058.6744723359357,539.8858991933798 L1063.611423082305,589.0064663370607"></path><path class="edge section-edge-3 edge-depth-1" d="M 1066.4277967936528,480.70209119498435 L 1147.7409220403492,508.5597541160148 L1229.0540472870457,536.4174170370452"></path><path class="edge section-edge-3 edge-depth-0" d="M 959.0790073931933,382.9051062612657 L 1000.3485886841958,424.0758750635773 L1041.6181699751983,465.2466438658888"></path><path class="edge section-edge-4 edge-depth-2" d="M 829.2848444618098,519.6089037204597 L 908.1388727359601,527.8681305058442 L986.9929010101105,536.1273572912287"></path><path class="edge section-edge-4 edge-depth-1" d="M 800.5855222885036,452.7426078846894 L 805.9273824315978,478.0560943324474 L811.269242574692,503.3695807802054"></path><path class="edge section-edge-4 edge-depth-3" d="M 363.1147913507449,607.1671061729463 L 335.0236851143195,649.1705413003156 L306.9325788778941,691.1739764276848"></path><path class="edge section-edge-4 edge-depth-3" d="M 356.4631037738035,594.1629179629622 L 243.1916127125176,590.1156725631888 L129.92012165123174,586.0684271634154"></path><path class="edge section-edge-4 edge-depth-2" d="M 618.305750515956,530.2121058815893 L 502.13612572281846,560.5596730233682 L385.96650092968093,590.9072401651471"></path><path class="edge section-edge-4 edge-depth-2" d="M 617.9632434263057,524.3435527894252 L 501.6415746339077,508.0781418034769 L385.3199058415097,491.8127308175286"></path><path class="edge section-edge-4 edge-depth-3" d="M 591.201872070717,662.1942329251737 L 589.0608129688517,706.1914198406022 L586.9197538669864,750.1886067560307"></path><path class="edge section-edge-4 edge-depth-2" d="M 628.0092862243406,540.6288880779392 L 612.3748379940745,586.8163875431342 L596.7403897638084,633.0038870083291"></path><path class="edge section-edge-4 edge-depth-2" d="M 646.6515824240357,532.2218243893257 L 724.6539557477264,564.9332374168864 L802.656329071417,597.6446504444472"></path><path class="edge section-edge-4 edge-depth-1" d="M 784.2707627651203,445.1578434142006 L 715.1535125825815,482.24333020087863 L646.0362624000428,519.3288169875566"></path><path class="edge section-edge-4 edge-depth-0" d="M 934.7074790336947,378.30091716604915 L 872.974005970688,405.18853648595297 L811.2405329076815,432.0761558058568"></path></g><g class="mindmap-nodes"><g transform="translate(910.2331377968148, 348.41122515976156)" class="mindmap-node section-root"><g><rect width="76.453125" ry="20" rx="20" height="47.8" class="node-bkg node-rounded-rect" id="node-0"></rect></g><g transform="translate(38.2265625, 10)"><text text-anchor="middle" dominant-baseline="middle" alignment-baseline="middle" dy="1em"><tspan dy="1em" x="0">MAIN</tspan></text></g></g><g transform="translate(693.5322903297915, 315.9793219453278)" class="mindmap-node section-root"><g><path d="M0 32.8 v-27.799999999999997 q0,-5 5,-5 h112.90625 q5,0 5,5 v32.8 H0 Z" class="node-bkg node-no-border" id="node-1"></path><line y2="37.8" x2="122.90625" y1="37.8" x1="0" class="node-line--1"></line></g><g transform="translate(61.453125, 5)"><text text-anchor="middle" dominant-baseline="middle" alignment-baseline="middle" dy="1em"><tspan dy="1em" x="0">Editor   Opened</tspan></text></g></g><g transform="translate(410.14764387283924, 318.698454032746)" class="mindmap-node section-root"><g><path d="M0 32.8 v-27.799999999999997 q0,-5 5,-5 h201.921875 q5,0 5,5 v32.8 H0 Z" class="node-bkg node-no-border" id="node-2"></path><line y2="37.8" x2="211.921875" y1="37.8" x1="0" class="node-line--1"></line></g><g transform="translate(105.9609375, 5)"><text text-anchor="middle" dominant-baseline="middle" alignment-baseline="middle" dy="1em"><tspan dy="1em" x="0">Check   for   user   permissions</tspan></text></g></g><g transform="translate(300.426574652889, 379.1638472668358)" class="mindmap-node section-root"><g><path d="M0 32.8 v-27.799999999999997 q0,-5 5,-5 h175.4140625 q5,0 5,5 v32.8 H0 Z" class="node-bkg node-no-border" id="node-3"></path><line y2="37.8" x2="185.4140625" y1="37.8" x1="0" class="node-line--1"></line></g><g transform="translate(92.70703125, 5)"><text text-anchor="middle" dominant-baseline="middle" alignment-baseline="middle" dy="1em"><tspan dy="1em" x="0">If   editor,   run   as   normal</tspan></text></g></g><g transform="translate(517.6856975773989, 388.34406363049925)" class="mindmap-node section-root"><g><path d="M0 50.39999847412109 v-45.39999847412109 q0,-5 5,-5 h172.921875 q5,0 5,5 v50.39999847412109 H0 Z" class="node-bkg node-no-border" id="node-4"></path><line y2="55.39999847412109" x2="182.921875" y1="55.39999847412109" x1="0" class="node-line--1"></line></g><g transform="translate(91.4609375, 5)"><text text-anchor="middle" dominant-baseline="middle" alignment-baseline="middle" dy="1em"><tspan dy="1em" x="0">If   viewer,   direct   to   the</tspan><tspan dy="1.1em" x="0">preview   page</tspan></text></g></g><g transform="translate(132.4485237371619, 313.59036247384915)" class="mindmap-node section-root"><g><path d="M0 50.39999847412109 v-45.39999847412109 q0,-5 5,-5 h200.3125 q5,0 5,5 v50.39999847412109 H0 Z" class="node-bkg node-no-border" id="node-5"></path><line y2="55.39999847412109" x2="210.3125" y1="55.39999847412109" x1="0" class="node-line--1"></line></g><g transform="translate(105.15625, 5)"><text text-anchor="middle" dominant-baseline="middle" alignment-baseline="middle" dy="1em"><tspan dy="1em" x="0">If   private,   display   an   error</tspan><tspan dy="1.1em" x="0">screen</tspan></text></g></g><g transform="translate(487.81871653385656, 250.58732195962077)" class="mindmap-node section-root"><g><path d="M0 32.8 v-27.799999999999997 q0,-5 5,-5 h196.484375 q5,0 5,5 v32.8 H0 Z" class="node-bkg node-no-border" id="node-6"></path><line y2="37.8" x2="206.484375" y1="37.8" x1="0" class="node-line--1"></line></g><g transform="translate(103.2421875, 5)"><text text-anchor="middle" dominant-baseline="middle" alignment-baseline="middle" dy="1em"><tspan dy="1em" x="0">Load   files   from   the   server</tspan></text></g></g><g transform="translate(221.95067286216693, 209.3345184228791)" class="mindmap-node section-root"><g><path d="M0 67.99999694824218 v-62.999996948242185 q0,-5 5,-5 h193.125 q5,0 5,5 v67.99999694824218 H0 Z" class="node-bkg node-no-border" id="node-7"></path><line y2="72.99999694824218" x2="203.125" y1="72.99999694824218" x1="0" class="node-line--1"></line></g><g transform="translate(101.5625, 5)"><text text-anchor="middle" dominant-baseline="middle" alignment-baseline="middle" dy="1em"><tspan dy="1em" x="0">Necessary   files   will   be</tspan><tspan dy="1.1em" x="0">listed   in   the   siteDat   JSON</tspan><tspan dy="1.1em" x="0">file</tspan></text></g></g><g transform="translate(665.8871823594224, 181.1928600171268)" class="mindmap-node section-root"><g><path d="M0 50.39999847412109 v-45.39999847412109 q0,-5 5,-5 h208.921875 q5,0 5,5 v50.39999847412109 H0 Z" class="node-bkg node-no-border" id="node-8"></path><line y2="55.39999847412109" x2="218.921875" y1="55.39999847412109" x1="0" class="node-line--1"></line></g><g transform="translate(109.4609375, 5)"><text text-anchor="middle" dominant-baseline="middle" alignment-baseline="middle" dy="1em"><tspan dy="1em" x="0">HTML   will   be   populated</tspan><tspan dy="1.1em" x="0">with   kraken   data   attributes</tspan></text></g></g><g transform="translate(427.1935488351977, 144.40236914781633)" class="mindmap-node section-root"><g><path d="M0 50.39999847412109 v-45.39999847412109 q0,-5 5,-5 h197.0078125 q5,0 5,5 v50.39999847412109 H0 Z" class="node-bkg node-no-border" id="node-9"></path><line y2="55.39999847412109" x2="207.0078125" y1="55.39999847412109" x1="0" class="node-line--1"></line></g><g transform="translate(103.50390625, 5)"><text text-anchor="middle" dominant-baseline="middle" alignment-baseline="middle" dy="1em"><tspan dy="1em" x="0">Apply   all   of   the   necessary</tspan><tspan dy="1.1em" x="0">CSS   and   JavaScript</tspan></text></g></g><g transform="translate(300.76635256948566, 39.302472327558355)" class="mindmap-node section-root"><g><path d="M0 67.99999694824218 v-62.999996948242185 q0,-5 5,-5 h181.7734375 q5,0 5,5 v67.99999694824218 H0 Z" class="node-bkg node-no-border" id="node-10"></path><line y2="72.99999694824218" x2="191.7734375" y1="72.99999694824218" x1="0" class="node-line--1"></line></g><g transform="translate(95.88671875, 5)"><text text-anchor="middle" dominant-baseline="middle" alignment-baseline="middle" dy="1em"><tspan dy="1em" x="0">Use   dedicated   style   and</tspan><tspan dy="1.1em" x="0">script   tags   instead   of</tspan><tspan dy="1.1em" x="0">importing   them</tspan></text></g></g><g transform="translate(852.2458793872617, 260.0739860883866)" class="mindmap-node section-0"><g><path d="M0 32.8 v-27.799999999999997 q0,-5 5,-5 h101.9609375 q5,0 5,5 v32.8 H0 Z" class="node-bkg node-no-border" id="node-11"></path><line y2="37.8" x2="111.9609375" y1="37.8" x1="0" class="node-line-0"></line></g><g transform="translate(55.98046875, 5)"><text text-anchor="middle" dominant-baseline="middle" alignment-baseline="middle" dy="1em"><tspan dy="1em" x="0">Action   taken</tspan></text></g></g><g transform="translate(911.6095141345627, 186.8761026613371)" class="mindmap-node section-0"><g><path d="M0 32.8 v-27.799999999999997 q0,-5 5,-5 h190.625 q5,0 5,5 v32.8 H0 Z" class="node-bkg node-no-border" id="node-12"></path><line y2="37.8" x2="200.625" y1="37.8" x1="0" class="node-line-0"></line></g><g transform="translate(100.3125, 5)"><text text-anchor="middle" dominant-baseline="middle" alignment-baseline="middle" dy="1em"><tspan dy="1em" x="0">Store   action   in   action   log</tspan></text></g></g><g transform="translate(1160.7625209102187, 124.58531875370932)" class="mindmap-node section-0"><g><path d="M0 50.39999847412109 v-45.39999847412109 q0,-5 5,-5 h187.1328125 q5,0 5,5 v50.39999847412109 H0 Z" class="node-bkg node-no-border" id="node-13"></path><line y2="55.39999847412109" x2="197.1328125" y1="55.39999847412109" x1="0" class="node-line-0"></line></g><g transform="translate(98.56640625, 5)"><text text-anchor="middle" dominant-baseline="middle" alignment-baseline="middle" dy="1em"><tspan dy="1em" x="0">This   can   be   accessed   for</tspan><tspan dy="1.1em" x="0">undos,   redos   and   saves</tspan></text></g></g><g transform="translate(990.0238946730369, 245.5110703351023)" class="mindmap-node section-1"><g><path d="M0 32.8 v-27.799999999999997 q0,-5 5,-5 h99.6796875 q5,0 5,5 v32.8 H0 Z" class="node-bkg node-no-border" id="node-14"></path><line y2="37.8" x2="109.6796875" y1="37.8" x1="0" class="node-line-1"></line></g><g transform="translate(54.83984375, 5)"><text text-anchor="middle" dominant-baseline="middle" alignment-baseline="middle" dy="1em"><tspan dy="1em" x="0">Editor   Saved</tspan></text></g></g><g transform="translate(1072.7942628986355, 302.48138581900275)" class="mindmap-node section-1"><g><path d="M0 50.39999847412109 v-45.39999847412109 q0,-5 5,-5 h203.671875 q5,0 5,5 v50.39999847412109 H0 Z" class="node-bkg node-no-border" id="node-15"></path><line y2="55.39999847412109" x2="213.671875" y1="55.39999847412109" x1="0" class="node-line-1"></line></g><g transform="translate(106.8359375, 5)"><text text-anchor="middle" dominant-baseline="middle" alignment-baseline="middle" dy="1em"><tspan dy="1em" x="0">If   an   element   is   selected,</tspan><tspan dy="1.1em" x="0">prompt   to   deselect   to   save</tspan></text></g></g><g transform="translate(911.090396099064, 124.73165724153182)" class="mindmap-node section-1"><g><path d="M0 32.8 v-27.799999999999997 q0,-5 5,-5 h209.9765625 q5,0 5,5 v32.8 H0 Z" class="node-bkg node-no-border" id="node-16"></path><line y2="37.8" x2="219.9765625" y1="37.8" x1="0" class="node-line-1"></line></g><g transform="translate(109.98828125, 5)"><text text-anchor="middle" dominant-baseline="middle" alignment-baseline="middle" dy="1em"><tspan dy="1em" x="0">Fetch   HTML   from   the   editor</tspan></text></g></g><g transform="translate(1080.2722413313127, 44.14171788041086)" class="mindmap-node section-1"><g><path d="M0 50.39999847412109 v-45.39999847412109 q0,-5 5,-5 h210.1484375 q5,0 5,5 v50.39999847412109 H0 Z" class="node-bkg node-no-border" id="node-17"></path><line y2="55.39999847412109" x2="220.1484375" y1="55.39999847412109" x1="0" class="node-line-1"></line></g><g transform="translate(110.07421875, 5)"><text text-anchor="middle" dominant-baseline="middle" alignment-baseline="middle" dy="1em"><tspan dy="1em" x="0">Remove   imported   CSS   and</tspan><tspan dy="1.1em" x="0">JavaScript   from   HTML   block</tspan></text></g></g><g transform="translate(891.5305782407113, 15)" class="mindmap-node section-1"><g><path d="M0 50.39999847412109 v-45.39999847412109 q0,-5 5,-5 h154.0703125 q5,0 5,5 v50.39999847412109 H0 Z" class="node-bkg node-no-border" id="node-18"></path><line y2="55.39999847412109" x2="164.0703125" y1="55.39999847412109" x1="0" class="node-line-1"></line></g><g transform="translate(82.03515625, 5)"><text text-anchor="middle" dominant-baseline="middle" alignment-baseline="middle" dy="1em"><tspan dy="1em" x="0">Remove   any   current</tspan><tspan dy="1.1em" x="0">selected   tags</tspan></text></g></g><g transform="translate(651.9156098777247, 64.96761623837028)" class="mindmap-node section-1"><g><path d="M0 50.39999847412109 v-45.39999847412109 q0,-5 5,-5 h200.7734375 q5,0 5,5 v50.39999847412109 H0 Z" class="node-bkg node-no-border" id="node-19"></path><line y2="55.39999847412109" x2="210.7734375" y1="55.39999847412109" x1="0" class="node-line-1"></line></g><g transform="translate(105.38671875, 5)"><text text-anchor="middle" dominant-baseline="middle" alignment-baseline="middle" dy="1em"><tspan dy="1em" x="0">Update   any   changed   HTML</tspan><tspan dy="1.1em" x="0">files   in   the   server   storage</tspan></text></g></g><g transform="translate(1169.5638719468616, 211.3287243104976)" class="mindmap-node section-1"><g><path d="M0 67.99999694824218 v-62.999996948242185 q0,-5 5,-5 h193.40625 q5,0 5,5 v67.99999694824218 H0 Z" class="node-bkg node-no-border" id="node-20"></path><line y2="72.99999694824218" x2="203.40625" y1="72.99999694824218" x1="0" class="node-line-1"></line></g><g transform="translate(101.703125, 5)"><text text-anchor="middle" dominant-baseline="middle" alignment-baseline="middle" dy="1em"><tspan dy="1em" x="0">Look   at   the   action   log   for</tspan><tspan dy="1.1em" x="0">any   changes   to   imported</tspan><tspan dy="1.1em" x="0">files</tspan></text></g></g><g transform="translate(1400.2374874039776, 137.20479318481)" class="mindmap-node section-1"><g><path d="M0 50.39999847412109 v-45.39999847412109 q0,-5 5,-5 h201.6953125 q5,0 5,5 v50.39999847412109 H0 Z" class="node-bkg node-no-border" id="node-21"></path><line y2="55.39999847412109" x2="211.6953125" y1="55.39999847412109" x1="0" class="node-line-1"></line></g><g transform="translate(105.84765625, 5)"><text text-anchor="middle" dominant-baseline="middle" alignment-baseline="middle" dy="1em"><tspan dy="1em" x="0">If   changes,   update   sideDat</tspan><tspan dy="1.1em" x="0">JSON   file   as   necessary</tspan></text></g></g><g transform="translate(1056.8686666444194, 384.76426513101035)" class="mindmap-node section-2"><g><path d="M0 32.8 v-27.799999999999997 q0,-5 5,-5 h185.6953125 q5,0 5,5 v32.8 H0 Z" class="node-bkg node-no-border" id="node-22"></path><line y2="37.8" x2="195.6953125" y1="37.8" x1="0" class="node-line-2"></line></g><g transform="translate(97.84765625, 5)"><text text-anchor="middle" dominant-baseline="middle" alignment-baseline="middle" dy="1em"><tspan dy="1em" x="0">Display   settings   changed</tspan></text></g></g><g transform="translate(1331.1901977031137, 355.95311587223557)" class="mindmap-node section-2"><g><path d="M0 50.39999847412109 v-45.39999847412109 q0,-5 5,-5 h208.1796875 q5,0 5,5 v50.39999847412109 H0 Z" class="node-bkg node-no-border" id="node-23"></path><line y2="55.39999847412109" x2="218.1796875" y1="55.39999847412109" x1="0" class="node-line-2"></line></g><g transform="translate(109.08984375, 5)"><text text-anchor="middle" dominant-baseline="middle" alignment-baseline="middle" dy="1em"><tspan dy="1em" x="0">If   the   aspect   ratio   has   been</tspan><tspan dy="1.1em" x="0">altered</tspan></text></g></g><g transform="translate(1574.5999388601101, 430.8075875318757)" class="mindmap-node section-2"><g><path d="M0 67.99999694824218 v-62.999996948242185 q0,-5 5,-5 h176.5390625 q5,0 5,5 v67.99999694824218 H0 Z" class="node-bkg node-no-border" id="node-24"></path><line y2="72.99999694824218" x2="186.5390625" y1="72.99999694824218" x1="0" class="node-line-2"></line></g><g transform="translate(93.26953125, 5)"><text text-anchor="middle" dominant-baseline="middle" alignment-baseline="middle" dy="1em"><tspan dy="1em" x="0">Append   necessary   data</tspan><tspan dy="1.1em" x="0">attributes   to   container</tspan><tspan dy="1.1em" x="0">element</tspan></text></g></g><g transform="translate(1609.5575820793154, 333.7954737565426)" class="mindmap-node section-2"><g><path d="M0 50.39999847412109 v-45.39999847412109 q0,-5 5,-5 h148.046875 q5,0 5,5 v50.39999847412109 H0 Z" class="node-bkg node-no-border" id="node-25"></path><line y2="55.39999847412109" x2="158.046875" y1="55.39999847412109" x1="0" class="node-line-2"></line></g><g transform="translate(79.0234375, 5)"><text text-anchor="middle" dominant-baseline="middle" alignment-baseline="middle" dy="1em"><tspan dy="1em" x="0">Resize   container   as</tspan><tspan dy="1.1em" x="0">necessary</tspan></text></g></g><g transform="translate(1441.1144045026076, 262.50719239514376)" class="mindmap-node section-2"><g><path d="M0 50.39999847412109 v-45.39999847412109 q0,-5 5,-5 h196.2421875 q5,0 5,5 v50.39999847412109 H0 Z" class="node-bkg node-no-border" id="node-26"></path><line y2="55.39999847412109" x2="206.2421875" y1="55.39999847412109" x1="0" class="node-line-2"></line></g><g transform="translate(103.12109375, 5)"><text text-anchor="middle" dominant-baseline="middle" alignment-baseline="middle" dy="1em"><tspan dy="1em" x="0">Update   JavaScript   display</tspan><tspan dy="1.1em" x="0">size   variables</tspan></text></g></g><g transform="translate(1703.515631148123, 171.596707739061)" class="mindmap-node section-2"><g><path d="M0 103.19999389648437 v-98.19999389648437 q0,-5 5,-5 h195.5703125 q5,0 5,5 v103.19999389648437 H0 Z" class="node-bkg node-no-border" id="node-27"></path><line y2="108.19999389648437" x2="205.5703125" y1="108.19999389648437" x1="0" class="node-line-2"></line></g><g transform="translate(102.78515625, 5)"><text text-anchor="middle" dominant-baseline="middle" alignment-baseline="middle" dy="1em"><tspan dy="1em" x="0">So   that   it   knows   what   CSS</tspan><tspan dy="1.1em" x="0">and   HTML   to   update,   if</tspan><tspan dy="1.1em" x="0">necessary,   and   which</tspan><tspan dy="1.1em" x="0">subroutines   to   call   on</tspan><tspan dy="1.1em" x="0">event   listeners</tspan></text></g></g><g transform="translate(979.3429458215767, 456.940524967393)" class="mindmap-node section-3"><g><path d="M0 32.8 v-27.799999999999997 q0,-5 5,-5 h135.7890625 q5,0 5,5 v32.8 H0 Z" class="node-bkg node-no-border" id="node-28"></path><line y2="37.8" x2="145.7890625" y1="37.8" x1="0" class="node-line-3"></line></g><g transform="translate(72.89453125, 5)"><text text-anchor="middle" dominant-baseline="middle" alignment-baseline="middle" dy="1em"><tspan dy="1em" x="0">Element   Selected</tspan></text></g></g><g transform="translate(1189.589231371824, 439.49160875570533)" class="mindmap-node section-3"><g><path d="M0 32.8 v-27.799999999999997 q0,-5 5,-5 h113.6171875 q5,0 5,5 v32.8 H0 Z" class="node-bkg node-no-border" id="node-29"></path><line y2="37.8" x2="123.6171875" y1="37.8" x1="0" class="node-line-3"></line></g><g transform="translate(61.80859375, 5)"><text text-anchor="middle" dominant-baseline="middle" alignment-baseline="middle" dy="1em"><tspan dy="1em" x="0">If   locked,   pass</tspan></text></g></g><g transform="translate(1370.0860650785448, 473.6468811140769)" class="mindmap-node section-3"><g><path d="M0 32.8 v-27.799999999999997 q0,-5 5,-5 h165.1328125 q5,0 5,5 v32.8 H0 Z" class="node-bkg node-no-border" id="node-30"></path><line y2="37.8" x2="175.1328125" y1="37.8" x1="0" class="node-line-3"></line></g><g transform="translate(87.56640625, 5)"><text text-anchor="middle" dominant-baseline="middle" alignment-baseline="middle" dy="1em"><tspan dy="1em" x="0">Display   unlock   button</tspan></text></g></g><g transform="translate(969.2872488502944, 576.2312741823062)" class="mindmap-node section-3"><g><path d="M0 50.39999847412109 v-45.39999847412109 q0,-5 5,-5 h181.6484375 q5,0 5,5 v50.39999847412109 H0 Z" class="node-bkg node-no-border" id="node-31"></path><line y2="55.39999847412109" x2="191.6484375" y1="55.39999847412109" x1="0" class="node-line-3"></line></g><g transform="translate(95.82421875, 5)"><text text-anchor="middle" dominant-baseline="middle" alignment-baseline="middle" dy="1em"><tspan dy="1em" x="0">Check   for   attributes   to</tspan><tspan dy="1.1em" x="0">determine   functionality</tspan></text></g></g><g transform="translate(1042.0416834176667, 682.1832365564749)" class="mindmap-node section-3"><g><path d="M0 67.99999694824218 v-62.999996948242185 q0,-5 5,-5 h193.0625 q5,0 5,5 v67.99999694824218 H0 Z" class="node-bkg node-no-border" id="node-32"></path><line y2="72.99999694824218" x2="203.0625" y1="72.99999694824218" x1="0" class="node-line-3"></line></g><g transform="translate(101.53125, 5)"><text text-anchor="middle" dominant-baseline="middle" alignment-baseline="middle" dy="1em"><tspan dy="1em" x="0">If   styleable,   populate   the</tspan><tspan dy="1.1em" x="0">style   area   with   relevant</tspan><tspan dy="1.1em" x="0">options</tspan></text></g></g><g transform="translate(1059.2148109961631, 810.2515461821824)" class="mindmap-node section-3"><g><path d="M0 50.39999847412109 v-45.39999847412109 q0,-5 5,-5 h161.78125 q5,0 5,5 v50.39999847412109 H0 Z" class="node-bkg node-no-border" id="node-33"></path><line y2="55.39999847412109" x2="171.78125" y1="55.39999847412109" x1="0" class="node-line-3"></line></g><g transform="translate(85.890625, 5)"><text text-anchor="middle" dominant-baseline="middle" alignment-baseline="middle" dy="1em"><tspan dy="1em" x="0">Listen   for   hovers   and</tspan><tspan dy="1.1em" x="0">selects   to   add   styling</tspan></text></g></g><g transform="translate(1297.637584293034, 759.9621677696007)" class="mindmap-node section-3"><g><path d="M0 67.99999694824218 v-62.999996948242185 q0,-5 5,-5 h186.1640625 q5,0 5,5 v67.99999694824218 H0 Z" class="node-bkg node-no-border" id="node-34"></path><line y2="72.99999694824218" x2="196.1640625" y1="72.99999694824218" x1="0" class="node-line-3"></line></g><g transform="translate(98.08203125, 5)"><text text-anchor="middle" dominant-baseline="middle" alignment-baseline="middle" dy="1em"><tspan dy="1em" x="0">Listen   for   deselection   of</tspan><tspan dy="1.1em" x="0">the   element   to   update</tspan><tspan dy="1.1em" x="0">styles</tspan></text></g></g><g transform="translate(1222.399155891859, 608.879979027307)" class="mindmap-node section-3"><g><path d="M0 50.39999847412109 v-45.39999847412109 q0,-5 5,-5 h155.515625 q5,0 5,5 v50.39999847412109 H0 Z" class="node-bkg node-no-border" id="node-35"></path><line y2="55.39999847412109" x2="165.515625" y1="55.39999847412109" x1="0" class="node-line-3"></line></g><g transform="translate(82.7578125, 5)"><text text-anchor="middle" dominant-baseline="middle" alignment-baseline="middle" dy="1em"><tspan dy="1em" x="0">If   draggable,   draw   a</tspan><tspan dy="1.1em" x="0">bounding   box</tspan></text></g></g><g transform="translate(1442.0659885307768, 653.2387889266765)" class="mindmap-node section-3"><g><path d="M0 32.8 v-27.799999999999997 q0,-5 5,-5 h183.2578125 q5,0 5,5 v32.8 H0 Z" class="node-bkg node-no-border" id="node-36"></path><line y2="37.8" x2="193.2578125" y1="37.8" x1="0" class="node-line-3"></line></g><g transform="translate(96.62890625, 5)"><text text-anchor="middle" dominant-baseline="middle" alignment-baseline="middle" dy="1em"><tspan dy="1em" x="0">Listen   for   click   and   hold</tspan></text></g></g><g transform="translate(809.3598004984559, 662.6391188329387)" class="mindmap-node section-3"><g><path d="M0 67.99999694824218 v-62.999996948242185 q0,-5 5,-5 h189.34375 q5,0 5,5 v67.99999694824218 H0 Z" class="node-bkg node-no-border" id="node-37"></path><line y2="72.99999694824218" x2="199.34375" y1="72.99999694824218" x1="0" class="node-line-3"></line></g><g transform="translate(99.671875, 5)"><text text-anchor="middle" dominant-baseline="middle" alignment-baseline="middle" dy="1em"><tspan dy="1em" x="0">If   resizable,   draw   a</tspan><tspan dy="1.1em" x="0">bounding   box   with   resize</tspan><tspan dy="1.1em" x="0">points</tspan></text></g></g><g transform="translate(783.4128760670093, 788.1101742858102)" class="mindmap-node section-3"><g><path d="M0 32.8 v-27.799999999999997 q0,-5 5,-5 h183.2578125 q5,0 5,5 v32.8 H0 Z" class="node-bkg node-no-border" id="node-38"></path><line y2="37.8" x2="193.2578125" y1="37.8" x1="0" class="node-line-3"></line></g><g transform="translate(96.62890625, 5)"><text text-anchor="middle" dominant-baseline="middle" alignment-baseline="middle" dy="1em"><tspan dy="1em" x="0">Listen   for   click   and   hold</tspan></text></g></g><g transform="translate(1135.9865545091218, 513.5789840275761)" class="mindmap-node section-3"><g><path d="M0 50.39999847412109 v-45.39999847412109 q0,-5 5,-5 h204.515625 q5,0 5,5 v50.39999847412109 H0 Z" class="node-bkg node-no-border" id="node-39"></path><line y2="55.39999847412109" x2="214.515625" y1="55.39999847412109" x1="0" class="node-line-3"></line></g><g transform="translate(107.2578125, 5)"><text text-anchor="middle" dominant-baseline="middle" alignment-baseline="middle" dy="1em"><tspan dy="1em" x="0">Append   necessary   selected</tspan><tspan dy="1.1em" x="0">tags</tspan></text></g></g><g transform="translate(727.8594053945613, 419.1658478121444)" class="mindmap-node section-4"><g><path d="M0 32.8 v-27.799999999999997 q0,-5 5,-5 h129.2578125 q5,0 5,5 v32.8 H0 Z" class="node-bkg node-no-border" id="node-40"></path><line y2="37.8" x2="139.2578125" y1="37.8" x1="0" class="node-line-4"></line></g><g transform="translate(69.62890625, 5)"><text text-anchor="middle" dominant-baseline="middle" alignment-baseline="middle" dy="1em"><tspan dy="1em" x="0">Section   Selected</tspan></text></g></g><g transform="translate(752.5578594686343, 499.1463408527504)" class="mindmap-node section-4"><g><path d="M0 32.8 v-27.799999999999997 q0,-5 5,-5 h113.6171875 q5,0 5,5 v32.8 H0 Z" class="node-bkg node-no-border" id="node-41"></path><line y2="37.8" x2="123.6171875" y1="37.8" x1="0" class="node-line-4"></line></g><g transform="translate(61.80859375, 5)"><text text-anchor="middle" dominant-baseline="middle" alignment-baseline="middle" dy="1em"><tspan dy="1em" x="0">If   locked,   pass</tspan></text></g></g><g transform="translate(914.344886003286, 518.789920158938)" class="mindmap-node section-4"><g><path d="M0 32.8 v-27.799999999999997 q0,-5 5,-5 h165.1328125 q5,0 5,5 v32.8 H0 Z" class="node-bkg node-no-border" id="node-42"></path><line y2="37.8" x2="175.1328125" y1="37.8" x1="0" class="node-line-4"></line></g><g transform="translate(87.56640625, 5)"><text text-anchor="middle" dominant-baseline="middle" alignment-baseline="middle" dy="1em"><tspan dy="1em" x="0">Display   unlock   button</tspan></text></g></g><g transform="translate(536.9944947706017, 498.72081335255234)" class="mindmap-node section-4"><g><path d="M0 50.39999847412109 v-45.39999847412109 q0,-5 5,-5 h181.6484375 q5,0 5,5 v50.39999847412109 H0 Z" class="node-bkg node-no-border" id="node-43"></path><line y2="55.39999847412109" x2="191.6484375" y1="55.39999847412109" x1="0" class="node-line-4"></line></g><g transform="translate(95.82421875, 5)"><text text-anchor="middle" dominant-baseline="middle" alignment-baseline="middle" dy="1em"><tspan dy="1em" x="0">Check   for   attributes   to</tspan><tspan dy="1.1em" x="0">determine   functionality</tspan></text></g></g><g transform="translate(269.9222879250352, 558.1985349830024)" class="mindmap-node section-4"><g><path d="M0 67.99999694824218 v-62.999996948242185 q0,-5 5,-5 h193.0625 q5,0 5,5 v67.99999694824218 H0 Z" class="node-bkg node-no-border" id="node-44"></path><line y2="72.99999694824218" x2="203.0625" y1="72.99999694824218" x1="0" class="node-line-4"></line></g><g transform="translate(101.53125, 5)"><text text-anchor="middle" dominant-baseline="middle" alignment-baseline="middle" dy="1em"><tspan dy="1em" x="0">If   styleable,   populate   the</tspan><tspan dy="1.1em" x="0">style   area   with   relevant</tspan><tspan dy="1.1em" x="0">options</tspan></text></g></g><g transform="translate(212.70320730360385, 675.9425499064471)" class="mindmap-node section-4"><g><path d="M0 50.39999847412109 v-45.39999847412109 q0,-5 5,-5 h161.78125 q5,0 5,5 v50.39999847412109 H0 Z" class="node-bkg node-no-border" id="node-45"></path><line y2="55.39999847412109" x2="171.78125" y1="55.39999847412109" x1="0" class="node-line-4"></line></g><g transform="translate(85.890625, 5)"><text text-anchor="middle" dominant-baseline="middle" alignment-baseline="middle" dy="1em"><tspan dy="1em" x="0">Listen   for   hovers   and</tspan><tspan dy="1.1em" x="0">selects   to   add   styling</tspan></text></g></g><g transform="translate(15, 557.8328124321936)" class="mindmap-node section-4"><g><path d="M0 50.39999847412109 v-45.39999847412109 q0,-5 5,-5 h189.859375 q5,0 5,5 v50.39999847412109 H0 Z" class="node-bkg node-no-border" id="node-46"></path><line y2="55.39999847412109" x2="199.859375" y1="55.39999847412109" x1="0" class="node-line-4"></line></g><g transform="translate(99.9296875, 5)"><text text-anchor="middle" dominant-baseline="middle" alignment-baseline="middle" dy="1em"><tspan dy="1em" x="0">Listen   for   deselection   of</tspan><tspan dy="1.1em" x="0">element   to   update   styles</tspan></text></g></g><g transform="translate(260.31209199721366, 462.03547178028043)" class="mindmap-node section-4"><g><path d="M0 50.39999847412109 v-45.39999847412109 q0,-5 5,-5 h210.3046875 q5,0 5,5 v50.39999847412109 H0 Z" class="node-bkg node-no-border" id="node-47"></path><line y2="55.39999847412109" x2="220.3046875" y1="55.39999847412109" x1="0" class="node-line-4"></line></g><g transform="translate(110.15234375, 5)"><text text-anchor="middle" dominant-baseline="middle" alignment-baseline="middle" dy="1em"><tspan dy="1em" x="0">If   draggable,   listen   for   click</tspan><tspan dy="1.1em" x="0">and   hold</tspan></text></g></g><g transform="translate(501.02471246754726, 610.7119640225344)" class="mindmap-node section-4"><g><path d="M0 67.99999694824218 v-62.999996948242185 q0,-5 5,-5 h171.8125 q5,0 5,5 v67.99999694824218 H0 Z" class="node-bkg node-no-border" id="node-48"></path><line y2="72.99999694824218" x2="181.8125" y1="72.99999694824218" x1="0" class="node-line-4"></line></g><g transform="translate(90.90625, 5)"><text text-anchor="middle" dominant-baseline="middle" alignment-baseline="middle" dy="1em"><tspan dy="1em" x="0">If   resizable,   listen   for</tspan><tspan dy="1.1em" x="0">hover   over   the   bottom</tspan><tspan dy="1.1em" x="0">border</tspan></text></g></g><g transform="translate(480.5109759701561, 737.4708779474884)" class="mindmap-node section-4"><g><path d="M0 50.39999847412109 v-45.39999847412109 q0,-5 5,-5 h201.359375 q5,0 5,5 v50.39999847412109 H0 Z" class="node-bkg node-no-border" id="node-49"></path><line y2="55.39999847412109" x2="211.359375" y1="55.39999847412109" x1="0" class="node-line-4"></line></g><g transform="translate(105.6796875, 5)"><text text-anchor="middle" dominant-baseline="middle" alignment-baseline="middle" dy="1em"><tspan dy="1em" x="0">Display   a   resize   toggle   and</tspan><tspan dy="1.1em" x="0">listen   for   click   and   hold</tspan></text></g></g><g transform="translate(709.231385474851, 575.7456630070994)" class="mindmap-node section-4"><g><path d="M0 50.39999847412109 v-45.39999847412109 q0,-5 5,-5 h204.515625 q5,0 5,5 v50.39999847412109 H0 Z" class="node-bkg node-no-border" id="node-50"></path><line y2="55.39999847412109" x2="214.515625" y1="55.39999847412109" x1="0" class="node-line-4"></line></g><g transform="translate(107.2578125, 5)"><text text-anchor="middle" dominant-baseline="middle" alignment-baseline="middle" dy="1em"><tspan dy="1em" x="0">Append   necessary   selected</tspan><tspan dy="1.1em" x="0">tags</tspan></text></g></g></g></svg>