<svg aria-roledescription="er" viewBox="0 0 385.33612060546875 512" style="max-width: 100%;" xmlns="http://www.w3.org/2000/svg" width="100%" id="graph-div" height="100%" xmlns:xlink="http://www.w3.org/1999/xlink"><style>@import url("https://cdnjs.cloudflare.com/ajax/libs/font-awesome/6.2.1/css/all.min.css");'</style><style>#graph-div{font-family:Lexend,Noto Sans,Helvetica,Arial;font-size:16px;fill:#000000;}#graph-div .error-icon{fill:#552222;}#graph-div .error-text{fill:#552222;stroke:#552222;}#graph-div .edge-thickness-normal{stroke-width:2px;}#graph-div .edge-thickness-thick{stroke-width:3.5px;}#graph-div .edge-pattern-solid{stroke-dasharray:0;}#graph-div .edge-pattern-dashed{stroke-dasharray:3;}#graph-div .edge-pattern-dotted{stroke-dasharray:2;}#graph-div .marker{fill:#666;stroke:#666;}#graph-div .marker.cross{stroke:#666;}#graph-div svg{font-family:Lexend,Noto Sans,Helvetica,Arial;font-size:16px;}#graph-div .entityBox{fill:#eee;stroke:#999;}#graph-div .attributeBoxOdd{fill:#ffffff;stroke:#999;}#graph-div .attributeBoxEven{fill:#f2f2f2;stroke:#999;}#graph-div .relationshipLabelBox{fill:hsl(-160, 0%, 93.3333333333%);opacity:0.7;background-color:hsl(-160, 0%, 93.3333333333%);}#graph-div .relationshipLabelBox rect{opacity:0.5;}#graph-div .relationshipLine{stroke:#666;}#graph-div .entityTitleText{text-anchor:middle;font-size:18px;fill:#000000;}#graph-div :root{--mermaid-font-family:"trebuchet ms",verdana,arial,sans-serif;}</style><g></g><defs><marker orient="auto" markerHeight="18" markerWidth="18" refY="9" refX="0" id="ONLY_ONE_START"><path d="M9,0 L9,18 M15,0 L15,18" fill="none" stroke="gray"></path></marker></defs><defs><marker orient="auto" markerHeight="18" markerWidth="18" refY="9" refX="18" id="ONLY_ONE_END"><path d="M3,0 L3,18 M9,0 L9,18" fill="none" stroke="gray"></path></marker></defs><defs><marker orient="auto" markerHeight="18" markerWidth="30" refY="9" refX="0" id="ZERO_OR_ONE_START"><circle r="6" cy="9" cx="21" fill="white" stroke="gray"></circle><path d="M9,0 L9,18" fill="none" stroke="gray"></path></marker></defs><defs><marker orient="auto" markerHeight="18" markerWidth="30" refY="9" refX="30" id="ZERO_OR_ONE_END"><circle r="6" cy="9" cx="9" fill="white" stroke="gray"></circle><path d="M21,0 L21,18" fill="none" stroke="gray"></path></marker></defs><defs><marker orient="auto" markerHeight="36" markerWidth="45" refY="18" refX="18" id="ONE_OR_MORE_START"><path d="M0,18 Q 18,0 36,18 Q 18,36 0,18 M42,9 L42,27" fill="none" stroke="gray"></path></marker></defs><defs><marker orient="auto" markerHeight="36" markerWidth="45" refY="18" refX="27" id="ONE_OR_MORE_END"><path d="M3,9 L3,27 M9,18 Q27,0 45,18 Q27,36 9,18" fill="none" stroke="gray"></path></marker></defs><defs><marker orient="auto" markerHeight="36" markerWidth="57" refY="18" refX="18" id="ZERO_OR_MORE_START"><circle r="6" cy="18" cx="48" fill="white" stroke="gray"></circle><path d="M0,18 Q18,0 36,18 Q18,36 0,18" fill="none" stroke="gray"></path></marker></defs><defs><marker orient="auto" markerHeight="36" markerWidth="57" refY="18" refX="39" id="ZERO_OR_MORE_END"><circle r="6" cy="18" cx="9" fill="white" stroke="gray"></circle><path d="M21,18 Q39,0 57,18 Q39,36 21,18" fill="none" stroke="gray"></path></marker></defs><path style="stroke: gray; fill: none;" marker-start="url(#ONLY_ONE_START)" marker-end="url(#ZERO_OR_MORE_END)" d="M79.51842498779297,252L79.51842498779297,260.3333333333333C79.51842498779297,268.6666666666667,79.51842498779297,285.3333333333333,89.74076334635417,304.6846869553383C99.96310170491536,324.0360405773433,120.40777842203777,346.0720811546865,130.63011678059897,357.0901014433582L140.85245513916016,368.1081217320298" class="er relationshipLine"></path><path style="stroke: gray; fill: none;" marker-start="url(#ONLY_ONE_START)" marker-end="url(#ZERO_OR_MORE_END)" d="M302.18648529052734,229L302.18648529052734,241.16666666666666C302.18648529052734,253.33333333333334,302.18648529052734,277.6666666666667,291.9641469319661,300.851353622005C281.74180857340497,324.0360405773433,261.29713185628253,346.0720811546865,251.07479349772134,357.0901014433582L240.85245513916016,368.1081217320298" class="er relationshipLine"></path><g transform="translate(20,20 )" id="entity-USER-5ed24733-d099-48c9-b68f-ab6c1a825f48"><rect height="232" width="119.03684997558594" y="0" x="0" class="er entityBox"></rect><text transform="translate(59.51842498779297,12.5)" style="dominant-baseline: middle; text-anchor: middle; font-size: 12px;" y="0" x="0" id="text-entity-USER-5ed24733-d099-48c9-b68f-ab6c1a825f48" class="er entityLabel">USER</text><rect height="23" width="38.8177490234375" y="25" x="0" class="er attributeBoxOdd"></rect><text transform="translate(5,36.5)" style="dominant-baseline: middle; font-size: 10.2px;" y="0" x="0" id="text-entity-USER-5ed24733-d099-48c9-b68f-ab6c1a825f48-attr-1-type" class="er entityLabel">string</text><rect height="23" width="80.21910095214844" y="25" x="38.8177490234375" class="er attributeBoxOdd"></rect><text transform="translate(43.8177490234375,36.5)" style="dominant-baseline: middle; font-size: 10.2px;" y="0" x="0" id="text-entity-USER-5ed24733-d099-48c9-b68f-ab6c1a825f48-attr-1-name" class="er entityLabel">user_id</text><rect height="23" width="38.8177490234375" y="48" x="0" class="er attributeBoxEven"></rect><text transform="translate(5,59.5)" style="dominant-baseline: middle; font-size: 10.2px;" y="0" x="0" id="text-entity-USER-5ed24733-d099-48c9-b68f-ab6c1a825f48-attr-2-type" class="er entityLabel">string</text><rect height="23" width="80.21910095214844" y="48" x="38.8177490234375" class="er attributeBoxEven"></rect><text transform="translate(43.8177490234375,59.5)" style="dominant-baseline: middle; font-size: 10.2px;" y="0" x="0" id="text-entity-USER-5ed24733-d099-48c9-b68f-ab6c1a825f48-attr-2-name" class="er entityLabel">name</text><rect height="23" width="38.8177490234375" y="71" x="0" class="er attributeBoxOdd"></rect><text transform="translate(5,82.5)" style="dominant-baseline: middle; font-size: 10.2px;" y="0" x="0" id="text-entity-USER-5ed24733-d099-48c9-b68f-ab6c1a825f48-attr-3-type" class="er entityLabel">string</text><rect height="23" width="80.21910095214844" y="71" x="38.8177490234375" class="er attributeBoxOdd"></rect><text transform="translate(43.8177490234375,82.5)" style="dominant-baseline: middle; font-size: 10.2px;" y="0" x="0" id="text-entity-USER-5ed24733-d099-48c9-b68f-ab6c1a825f48-attr-3-name" class="er entityLabel">name</text><rect height="23" width="38.8177490234375" y="94" x="0" class="er attributeBoxEven"></rect><text transform="translate(5,105.5)" style="dominant-baseline: middle; font-size: 10.2px;" y="0" x="0" id="text-entity-USER-5ed24733-d099-48c9-b68f-ab6c1a825f48-attr-4-type" class="er entityLabel">string</text><rect height="23" width="80.21910095214844" y="94" x="38.8177490234375" class="er attributeBoxEven"></rect><text transform="translate(43.8177490234375,105.5)" style="dominant-baseline: middle; font-size: 10.2px;" y="0" x="0" id="text-entity-USER-5ed24733-d099-48c9-b68f-ab6c1a825f48-attr-4-name" class="er entityLabel">email</text><rect height="23" width="38.8177490234375" y="117" x="0" class="er attributeBoxOdd"></rect><text transform="translate(5,128.5)" style="dominant-baseline: middle; font-size: 10.2px;" y="0" x="0" id="text-entity-USER-5ed24733-d099-48c9-b68f-ab6c1a825f48-attr-5-type" class="er entityLabel">string</text><rect height="23" width="80.21910095214844" y="117" x="38.8177490234375" class="er attributeBoxOdd"></rect><text transform="translate(43.8177490234375,128.5)" style="dominant-baseline: middle; font-size: 10.2px;" y="0" x="0" id="text-entity-USER-5ed24733-d099-48c9-b68f-ab6c1a825f48-attr-5-name" class="er entityLabel">password</text><rect height="23" width="38.8177490234375" y="140" x="0" class="er attributeBoxEven"></rect><text transform="translate(5,151.5)" style="dominant-baseline: middle; font-size: 10.2px;" y="0" x="0" id="text-entity-USER-5ed24733-d099-48c9-b68f-ab6c1a825f48-attr-6-type" class="er entityLabel">string</text><rect height="23" width="80.21910095214844" y="140" x="38.8177490234375" class="er attributeBoxEven"></rect><text transform="translate(43.8177490234375,151.5)" style="dominant-baseline: middle; font-size: 10.2px;" y="0" x="0" id="text-entity-USER-5ed24733-d099-48c9-b68f-ab6c1a825f48-attr-6-name" class="er entityLabel">bio</text><rect height="23" width="38.8177490234375" y="163" x="0" class="er attributeBoxOdd"></rect><text transform="translate(5,174.5)" style="dominant-baseline: middle; font-size: 10.2px;" y="0" x="0" id="text-entity-USER-5ed24733-d099-48c9-b68f-ab6c1a825f48-attr-7-type" class="er entityLabel">string</text><rect height="23" width="80.21910095214844" y="163" x="38.8177490234375" class="er attributeBoxOdd"></rect><text transform="translate(43.8177490234375,174.5)" style="dominant-baseline: middle; font-size: 10.2px;" y="0" x="0" id="text-entity-USER-5ed24733-d099-48c9-b68f-ab6c1a825f48-attr-7-name" class="er entityLabel">url</text><rect height="23" width="38.8177490234375" y="186" x="0" class="er attributeBoxEven"></rect><text transform="translate(5,197.5)" style="dominant-baseline: middle; font-size: 10.2px;" y="0" x="0" id="text-entity-USER-5ed24733-d099-48c9-b68f-ab6c1a825f48-attr-8-type" class="er entityLabel">bool</text><rect height="23" width="80.21910095214844" y="186" x="38.8177490234375" class="er attributeBoxEven"></rect><text transform="translate(43.8177490234375,197.5)" style="dominant-baseline: middle; font-size: 10.2px;" y="0" x="0" id="text-entity-USER-5ed24733-d099-48c9-b68f-ab6c1a825f48-attr-8-name" class="er entityLabel">archived</text><rect height="23" width="38.8177490234375" y="209" x="0" class="er attributeBoxOdd"></rect><text transform="translate(5,220.5)" style="dominant-baseline: middle; font-size: 10.2px;" y="0" x="0" id="text-entity-USER-5ed24733-d099-48c9-b68f-ab6c1a825f48-attr-9-type" class="er entityLabel">int</text><rect height="23" width="80.21910095214844" y="209" x="38.8177490234375" class="er attributeBoxOdd"></rect><text transform="translate(43.8177490234375,220.5)" style="dominant-baseline: middle; font-size: 10.2px;" y="0" x="0" id="text-entity-USER-5ed24733-d099-48c9-b68f-ab6c1a825f48-attr-9-name" class="er entityLabel">tabpreference</text></g><g transform="translate(140.85245513916016,352 )" id="entity-LINK-ab3cf1de-57bf-4d50-949a-8e8ae128adab"><rect height="140" width="100" y="0" x="0" class="er entityBox"></rect><text transform="translate(50,12.5)" style="dominant-baseline: middle; text-anchor: middle; font-size: 12px;" y="0" x="0" id="text-entity-LINK-ab3cf1de-57bf-4d50-949a-8e8ae128adab" class="er entityLabel">LINK</text><rect height="23" width="43.639915466308594" y="25" x="0" class="er attributeBoxOdd"></rect><text transform="translate(5,36.5)" style="dominant-baseline: middle; font-size: 10.2px;" y="0" x="0" id="text-entity-LINK-ab3cf1de-57bf-4d50-949a-8e8ae128adab-attr-1-type" class="er entityLabel">string</text><rect height="23" width="56.360084533691406" y="25" x="43.639915466308594" class="er attributeBoxOdd"></rect><text transform="translate(48.639915466308594,36.5)" style="dominant-baseline: middle; font-size: 10.2px;" y="0" x="0" id="text-entity-LINK-ab3cf1de-57bf-4d50-949a-8e8ae128adab-attr-1-name" class="er entityLabel">user_id</text><rect height="23" width="43.639915466308594" y="48" x="0" class="er attributeBoxEven"></rect><text transform="translate(5,59.5)" style="dominant-baseline: middle; font-size: 10.2px;" y="0" x="0" id="text-entity-LINK-ab3cf1de-57bf-4d50-949a-8e8ae128adab-attr-2-type" class="er entityLabel">int</text><rect height="23" width="56.360084533691406" y="48" x="43.639915466308594" class="er attributeBoxEven"></rect><text transform="translate(48.639915466308594,59.5)" style="dominant-baseline: middle; font-size: 10.2px;" y="0" x="0" id="text-entity-LINK-ab3cf1de-57bf-4d50-949a-8e8ae128adab-attr-2-name" class="er entityLabel">site_id</text><rect height="23" width="43.639915466308594" y="71" x="0" class="er attributeBoxOdd"></rect><text transform="translate(5,82.5)" style="dominant-baseline: middle; font-size: 10.2px;" y="0" x="0" id="text-entity-LINK-ab3cf1de-57bf-4d50-949a-8e8ae128adab-attr-3-type" class="er entityLabel">string</text><rect height="23" width="56.360084533691406" y="71" x="43.639915466308594" class="er attributeBoxOdd"></rect><text transform="translate(48.639915466308594,82.5)" style="dominant-baseline: middle; font-size: 10.2px;" y="0" x="0" id="text-entity-LINK-ab3cf1de-57bf-4d50-949a-8e8ae128adab-attr-3-name" class="er entityLabel">role</text><rect height="23" width="43.639915466308594" y="94" x="0" class="er attributeBoxEven"></rect><text transform="translate(5,105.5)" style="dominant-baseline: middle; font-size: 10.2px;" y="0" x="0" id="text-entity-LINK-ab3cf1de-57bf-4d50-949a-8e8ae128adab-attr-4-type" class="er entityLabel">bool</text><rect height="23" width="56.360084533691406" y="94" x="43.639915466308594" class="er attributeBoxEven"></rect><text transform="translate(48.639915466308594,105.5)" style="dominant-baseline: middle; font-size: 10.2px;" y="0" x="0" id="text-entity-LINK-ab3cf1de-57bf-4d50-949a-8e8ae128adab-attr-4-name" class="er entityLabel">canedit</text><rect height="23" width="43.639915466308594" y="117" x="0" class="er attributeBoxOdd"></rect><text transform="translate(5,128.5)" style="dominant-baseline: middle; font-size: 10.2px;" y="0" x="0" id="text-entity-LINK-ab3cf1de-57bf-4d50-949a-8e8ae128adab-attr-5-type" class="er entityLabel">bool</text><rect height="23" width="56.360084533691406" y="117" x="43.639915466308594" class="er attributeBoxOdd"></rect><text transform="translate(48.639915466308594,128.5)" style="dominant-baseline: middle; font-size: 10.2px;" y="0" x="0" id="text-entity-LINK-ab3cf1de-57bf-4d50-949a-8e8ae128adab-attr-5-name" class="er entityLabel">canview</text></g><g transform="translate(239.03684997558594,43 )" id="entity-SITE-e44aae96-75be-4121-8c36-9c8b49662aa6"><rect height="186" width="126.29927062988281" y="0" x="0" class="er entityBox"></rect><text transform="translate(63.149635314941406,12.5)" style="dominant-baseline: middle; text-anchor: middle; font-size: 12px;" y="0" x="0" id="text-entity-SITE-e44aae96-75be-4121-8c36-9c8b49662aa6" class="er entityLabel">SITE</text><rect height="23" width="54.91294860839844" y="25" x="0" class="er attributeBoxOdd"></rect><text transform="translate(5,36.5)" style="dominant-baseline: middle; font-size: 10.2px;" y="0" x="0" id="text-entity-SITE-e44aae96-75be-4121-8c36-9c8b49662aa6-attr-1-type" class="er entityLabel">int</text><rect height="23" width="71.38632202148438" y="25" x="54.91294860839844" class="er attributeBoxOdd"></rect><text transform="translate(59.91294860839844,36.5)" style="dominant-baseline: middle; font-size: 10.2px;" y="0" x="0" id="text-entity-SITE-e44aae96-75be-4121-8c36-9c8b49662aa6-attr-1-name" class="er entityLabel">site_id</text><rect height="23" width="54.91294860839844" y="48" x="0" class="er attributeBoxEven"></rect><text transform="translate(5,59.5)" style="dominant-baseline: middle; font-size: 10.2px;" y="0" x="0" id="text-entity-SITE-e44aae96-75be-4121-8c36-9c8b49662aa6-attr-2-type" class="er entityLabel">string</text><rect height="23" width="71.38632202148438" y="48" x="54.91294860839844" class="er attributeBoxEven"></rect><text transform="translate(59.91294860839844,59.5)" style="dominant-baseline: middle; font-size: 10.2px;" y="0" x="0" id="text-entity-SITE-e44aae96-75be-4121-8c36-9c8b49662aa6-attr-2-name" class="er entityLabel">user_id</text><rect height="23" width="54.91294860839844" y="71" x="0" class="er attributeBoxOdd"></rect><text transform="translate(5,82.5)" style="dominant-baseline: middle; font-size: 10.2px;" y="0" x="0" id="text-entity-SITE-e44aae96-75be-4121-8c36-9c8b49662aa6-attr-3-type" class="er entityLabel">string</text><rect height="23" width="71.38632202148438" y="71" x="54.91294860839844" class="er attributeBoxOdd"></rect><text transform="translate(59.91294860839844,82.5)" style="dominant-baseline: middle; font-size: 10.2px;" y="0" x="0" id="text-entity-SITE-e44aae96-75be-4121-8c36-9c8b49662aa6-attr-3-name" class="er entityLabel">name</text><rect height="23" width="54.91294860839844" y="94" x="0" class="er attributeBoxEven"></rect><text transform="translate(5,105.5)" style="dominant-baseline: middle; font-size: 10.2px;" y="0" x="0" id="text-entity-SITE-e44aae96-75be-4121-8c36-9c8b49662aa6-attr-4-type" class="er entityLabel">datetime</text><rect height="23" width="71.38632202148438" y="94" x="54.91294860839844" class="er attributeBoxEven"></rect><text transform="translate(59.91294860839844,105.5)" style="dominant-baseline: middle; font-size: 10.2px;" y="0" x="0" id="text-entity-SITE-e44aae96-75be-4121-8c36-9c8b49662aa6-attr-4-name" class="er entityLabel">datecreated</text><rect height="23" width="54.91294860839844" y="117" x="0" class="er attributeBoxOdd"></rect><text transform="translate(5,128.5)" style="dominant-baseline: middle; font-size: 10.2px;" y="0" x="0" id="text-entity-SITE-e44aae96-75be-4121-8c36-9c8b49662aa6-attr-5-type" class="er entityLabel">bool</text><rect height="23" width="71.38632202148438" y="117" x="54.91294860839844" class="er attributeBoxOdd"></rect><text transform="translate(59.91294860839844,128.5)" style="dominant-baseline: middle; font-size: 10.2px;" y="0" x="0" id="text-entity-SITE-e44aae96-75be-4121-8c36-9c8b49662aa6-attr-5-name" class="er entityLabel">private</text><rect height="23" width="54.91294860839844" y="140" x="0" class="er attributeBoxEven"></rect><text transform="translate(5,151.5)" style="dominant-baseline: middle; font-size: 10.2px;" y="0" x="0" id="text-entity-SITE-e44aae96-75be-4121-8c36-9c8b49662aa6-attr-6-type" class="er entityLabel">bool</text><rect height="23" width="71.38632202148438" y="140" x="54.91294860839844" class="er attributeBoxEven"></rect><text transform="translate(59.91294860839844,151.5)" style="dominant-baseline: middle; font-size: 10.2px;" y="0" x="0" id="text-entity-SITE-e44aae96-75be-4121-8c36-9c8b49662aa6-attr-6-name" class="er entityLabel">deleted</text><rect height="23" width="54.91294860839844" y="163" x="0" class="er attributeBoxOdd"></rect><text transform="translate(5,174.5)" style="dominant-baseline: middle; font-size: 10.2px;" y="0" x="0" id="text-entity-SITE-e44aae96-75be-4121-8c36-9c8b49662aa6-attr-7-type" class="er entityLabel">text</text><rect height="23" width="71.38632202148438" y="163" x="54.91294860839844" class="er attributeBoxOdd"></rect><text transform="translate(59.91294860839844,174.5)" style="dominant-baseline: middle; font-size: 10.2px;" y="0" x="0" id="text-entity-SITE-e44aae96-75be-4121-8c36-9c8b49662aa6-attr-7-name" class="er entityLabel">sitepath</text></g><rect height="15" width="20.735992431640625" y="308.8529052734375" x="86.46432495117188" class="er relationshipLabelBox"></rect><text style="text-anchor: middle; dominant-baseline: middle; font-size: 12px;" y="316.3529052734375" x="96.83232116699219" id="rel2" class="er relationshipLabel">has</text><rect height="15" width="12.5479736328125" y="298.63153076171875" x="283.18170166015625" class="er relationshipLabelBox"></rect><text style="text-anchor: middle; dominant-baseline: middle; font-size: 12px;" y="306.13153076171875" x="289.4556884765625" id="rel3" class="er relationshipLabel">to</text></svg>