<svg id="svg" version="1.1" xmlns="http://www.w3.org/2000/svg" xmlns:xlink="http://www.w3.org/1999/xlink" width="400" height="400" viewBox="0, 0, 400,400"><g id="svgg"><path id="path0" d="M7.813 7.813 C 6.354 9.271,6.250 10.417,6.250 25.000 C 6.250 43.668,6.284 43.750,14.063 43.750 L 18.750 43.750 18.750 112.500 L 18.750 181.250 14.062 181.250 C 6.284 181.250,6.250 181.332,6.250 200.000 C 6.250 218.668,6.284 218.750,14.063 218.750 L 18.750 218.750 18.750 287.500 L 18.750 356.250 14.062 356.250 C 6.284 356.250,6.250 356.332,6.250 375.000 C 6.250 395.473,4.527 393.750,25.000 393.750 C 43.668 393.750,43.750 393.716,43.750 385.938 L 43.750 381.250 112.500 381.250 L 181.250 381.250 181.250 385.937 C 181.250 393.716,181.332 393.750,200.000 393.750 C 218.668 393.750,218.750 393.716,218.750 385.938 L 218.750 381.250 287.500 381.250 L 356.250 381.250 356.250 385.937 C 356.250 393.716,356.332 393.750,375.000 393.750 C 395.473 393.750,393.750 395.473,393.750 375.000 C 393.750 356.332,393.716 356.250,385.938 356.250 L 381.250 356.250 381.250 287.500 L 381.250 218.750 385.938 218.750 C 393.716 218.750,393.750 218.668,393.750 200.000 C 393.750 181.332,393.716 181.250,385.938 181.250 L 381.250 181.250 381.250 112.500 L 381.250 43.750 385.938 43.750 C 393.716 43.750,393.750 43.668,393.750 25.000 C 393.750 4.527,395.473 6.250,375.000 6.250 C 356.332 6.250,356.250 6.284,356.250 14.063 L 356.250 18.750 287.500 18.750 L 218.750 18.750 218.750 14.063 C 218.750 6.284,218.668 6.250,200.000 6.250 C 181.332 6.250,181.250 6.284,181.250 14.063 L 181.250 18.750 112.500 18.750 L 43.750 18.750 43.750 14.063 C 43.750 6.284,43.668 6.250,25.000 6.250 C 10.417 6.250,9.271 6.354,7.813 7.813 M31.250 25.000 L 31.250 31.250 25.000 31.250 L 18.750 31.250 18.750 25.000 L 18.750 18.750 25.000 18.750 L 31.250 18.750 31.250 25.000 M206.250 25.000 L 206.250 31.250 200.000 31.250 L 193.750 31.250 193.750 25.000 L 193.750 18.750 200.000 18.750 L 206.250 18.750 206.250 25.000 M381.250 25.000 L 381.250 31.250 375.000 31.250 L 368.750 31.250 368.750 25.000 L 368.750 18.750 375.000 18.750 L 381.250 18.750 381.250 25.000 M181.250 35.938 C 181.250 43.716,181.332 43.750,200.000 43.750 C 218.668 43.750,218.750 43.716,218.750 35.938 L 218.750 31.250 287.500 31.250 L 356.250 31.250 356.250 35.938 C 356.250 42.324,357.676 43.750,364.063 43.750 L 368.750 43.750 368.750 112.500 L 368.750 181.250 364.063 181.250 C 356.284 181.250,356.250 181.332,356.250 200.000 C 356.250 218.668,356.284 218.750,364.063 218.750 L 368.750 218.750 368.750 287.500 L 368.750 356.250 364.062 356.250 C 357.676 356.250,356.250 357.676,356.250 364.062 L 356.250 368.750 287.500 368.750 L 218.750 368.750 218.750 364.062 C 218.750 356.284,218.668 356.250,200.000 356.250 C 181.332 356.250,181.250 356.284,181.250 364.062 L 181.250 368.750 112.500 368.750 L 43.750 368.750 43.750 364.063 C 43.750 357.676,42.324 356.250,35.938 356.250 L 31.250 356.250 31.250 287.500 L 31.250 218.750 35.938 218.750 C 43.716 218.750,43.750 218.668,43.750 200.000 C 43.750 181.332,43.716 181.250,35.938 181.250 L 31.250 181.250 31.250 112.500 L 31.250 43.750 35.938 43.750 C 39.583 43.750,40.972 43.403,42.188 42.188 C 43.403 40.972,43.750 39.583,43.750 35.938 L 43.750 31.250 112.500 31.250 L 181.250 31.250 181.250 35.938 M135.938 131.804 C 133.798 132.591,132.126 134.510,131.636 136.741 C 131.008 139.599,206.009 312.597,209.104 315.430 C 210.168 316.404,212.031 317.188,213.281 317.188 C 219.101 317.188,218.889 317.926,225.956 273.017 L 232.353 232.362 273.012 225.947 C 317.904 218.864,317.188 219.070,317.188 213.281 C 317.188 212.033,316.402 210.162,315.430 209.096 C 313.690 207.187,140.453 131.176,138.152 131.312 C 137.578 131.346,136.582 131.567,135.938 131.804 M251.306 194.759 C 270.286 203.013,285.579 209.973,285.290 210.225 C 285.002 210.478,271.758 212.695,255.859 215.152 C 222.321 220.334,222.075 220.394,220.734 223.718 C 220.189 225.068,217.703 239.355,215.209 255.469 C 212.715 271.582,210.470 284.996,210.220 285.277 C 209.970 285.558,196.572 255.486,180.446 218.450 L 151.126 151.113 183.961 165.433 C 202.021 173.309,232.326 186.506,251.306 194.759 M31.250 200.000 L 31.250 206.250 25.000 206.250 L 18.750 206.250 18.750 200.000 L 18.750 193.750 25.000 193.750 L 31.250 193.750 31.250 200.000 M381.250 200.000 L 381.250 206.250 375.000 206.250 L 368.750 206.250 368.750 200.000 L 368.750 193.750 375.000 193.750 L 381.250 193.750 381.250 200.000 M31.250 375.000 L 31.250 381.250 25.000 381.250 L 18.750 381.250 18.750 375.000 L 18.750 368.750 25.000 368.750 L 31.250 368.750 31.250 375.000 M206.250 375.000 L 206.250 381.250 200.000 381.250 L 193.750 381.250 193.750 375.000 L 193.750 368.750 200.000 368.750 L 206.250 368.750 206.250 375.000 M381.250 375.000 L 381.250 381.250 375.000 381.250 L 368.750 381.250 368.750 375.000 L 368.750 368.750 375.000 368.750 L 381.250 368.750 381.250 375.000 " stroke="none" fill="#1c7fe9" fill-rule="evenodd"></path></g></svg>